<svg width="40" height="40" viewBox="0 0 40 40" fill="none" xmlns="http://www.w3.org/2000/svg">
<path d="M33.7144 15H5.82643C4.79202 15 3.92829 15.7888 3.83464 16.8189L2.19828 34.8189C2.0918 35.9902 3.014 37 4.19007 37H35.7599C36.9539 37 37.8819 35.9606 37.7471 34.7742L35.7016 16.7742C35.5868 15.7635 34.7316 15 33.7144 15Z" fill="white" stroke="#172A50" stroke-width="2"/>
<path d="M31.3344 21.7931C31.5066 21.6209 31.711 21.4843 31.936 21.3912C32.161 21.298 32.4021 21.25 32.6456 21.25C32.8891 21.25 33.1303 21.298 33.3553 21.3912C33.5802 21.4843 33.7847 21.6209 33.9569 21.7931C34.1291 21.9653 34.2657 22.1698 34.3588 22.3947C34.452 22.6197 34.5 22.8609 34.5 23.1044C34.5 23.3479 34.452 23.589 34.3588 23.814C34.2657 24.039 34.1291 24.2434 33.9569 24.4156L25.2937 33.0788C25.1707 33.2018 25.0176 33.2906 24.8497 33.3364L23.1883 33.7895C22.4418 33.9931 21.7569 33.3082 21.9605 32.5617L22.4136 30.9003C22.4594 30.7324 22.5482 30.5793 22.6712 30.4563L31.3344 21.7931Z" fill="#172A50"/>
<path d="M29.5 14.25C29.5 21.326 22.1429 27.5845 19.3278 29.7202C18.6846 30.2082 17.8154 30.2082 17.1722 29.7202C14.3571 27.5845 7 21.326 7 14.25C7 11.2663 8.18526 8.40483 10.295 6.29505C12.4048 4.18526 15.2663 3 18.25 3C21.2337 3 24.0952 4.18526 26.205 6.29505C28.3147 8.40483 29.5 11.2663 29.5 14.25Z" fill="#172A50" stroke="url(#paint0_linear_242_31)" stroke-width="2" stroke-linecap="round" stroke-linejoin="round"/>
<path d="M18 19C20.7614 19 23 16.7614 23 14C23 11.2386 20.7614 9 18 9C15.2386 9 13 11.2386 13 14C13 16.7614 15.2386 19 18 19Z" fill="white" stroke="white" stroke-linecap="round" stroke-linejoin="round"/>
<defs>
<linearGradient id="paint0_linear_242_31" x1="18.25" y1="-10.125" x2="18.25" y2="62.375" gradientUnits="userSpaceOnUse">
<stop stop-color="#172A50"/>
<stop offset="0.890936" stop-color="#172A50"/>
</linearGradient>
</defs>
</svg>
