<?xml version="1.0" standalone="no"?>
<!DOCTYPE svg PUBLIC "-//W3C//DTD SVG 20010904//EN"
 "http://www.w3.org/TR/2001/REC-SVG-20010904/DTD/svg10.dtd">
<svg version="1.0" xmlns="http://www.w3.org/2000/svg"
 width="700.000000pt" height="700.000000pt" viewBox="0 0 700.000000 700.000000"
 preserveAspectRatio="xMidYMid meet">
<metadata>
Created by potrace 1.14, written by Peter Selinger 2001-2017
</metadata>
<g transform="translate(0.000000,700.000000) scale(0.100000,-0.100000)"
fill="#000000" stroke="none">
<path d="M2940 6635 c-77 -10 -230 -39 -310 -60 -25 -6 -203 -65 -225 -75
-290 -124 -511 -268 -705 -461 -146 -144 -185 -191 -294 -352 -183 -273 -306
-613 -342 -947 -11 -102 -12 -113 -13 -152 -1 -38 -1 -38 -43 -38 -24 0 -71
-7 -106 -15 -225 -53 -385 -242 -406 -480 -4 -38 -9 -90 -11 -115 -2 -25 -7
-74 -10 -110 -3 -36 -7 -85 -10 -110 -2 -25 -7 -76 -10 -115 -4 -38 -8 -87
-11 -108 -2 -20 -6 -68 -9 -105 -3 -37 -8 -83 -10 -102 -2 -19 -7 -69 -10
-110 -3 -41 -8 -95 -10 -120 -5 -49 -12 -127 -20 -217 -5 -58 -13 -142 -20
-218 -2 -22 -6 -74 -10 -115 -3 -41 -8 -91 -10 -110 -2 -19 -7 -66 -10 -105
-9 -101 -13 -142 -20 -215 -3 -36 -8 -90 -10 -120 -4 -53 -11 -129 -20 -215
-2 -22 -7 -74 -10 -115 -4 -41 -8 -86 -10 -100 -2 -14 -6 -63 -10 -110 -3 -47
-8 -101 -10 -120 -2 -19 -7 -71 -10 -115 -4 -44 -9 -93 -11 -110 -13 -104 -16
-257 -4 -306 47 -207 215 -372 414 -408 42 -8 907 -11 2867 -11 2522 0 2815 2
2876 16 186 43 338 192 388 380 15 56 20 171 11 224 -3 14 -7 54 -10 90 -4 36
-8 72 -10 80 -3 8 -7 47 -10 85 -4 39 -8 81 -10 95 -3 14 -7 55 -11 92 -3 37
-8 77 -10 90 -2 13 -6 50 -10 83 -11 105 -16 148 -25 225 -5 41 -12 100 -15
130 -5 51 -11 104 -20 175 -2 17 -7 57 -10 90 -3 33 -8 76 -11 96 -2 20 -7 59
-9 85 -3 27 -7 66 -10 87 -10 72 -14 113 -20 172 -3 33 -8 74 -10 90 -2 17 -9
75 -15 130 -13 125 -15 142 -39 350 -11 94 -23 195 -26 225 -3 30 -8 69 -10
85 -6 43 -14 111 -20 175 -3 30 -7 71 -10 90 -3 19 -7 60 -10 90 -21 209 -31
268 -54 328 -32 79 -62 124 -126 189 -66 65 -114 95 -205 127 -49 17 -88 20
-355 23 -409 5 -368 -1 -371 53 -5 122 -22 243 -59 425 -9 45 -94 296 -110
325 -8 14 -26 52 -41 85 -23 50 -58 115 -129 233 -17 29 -78 117 -85 122 -3 3
-13 15 -21 27 -93 137 -316 343 -513 475 -201 136 -502 266 -696 302 -14 2
-59 11 -100 20 -41 8 -97 18 -125 21 -93 13 -419 12 -515 0z"/>
</g>
</svg>
